<svg xmlns="http://www.w3.org/2000/svg" xmlns:xlink="http://www.w3.org/1999/xlink" width="500" zoomAndPan="magnify" viewBox="0 0 375 97.5" height="130" preserveAspectRatio="xMidYMid meet" version="1.0"><defs><g/><clipPath id="id1"><path d="M 10.65625 1.179688 L 104.675781 1.179688 L 104.675781 95.941406 L 10.65625 95.941406 Z M 10.65625 1.179688 " clip-rule="nonzero"/></clipPath></defs><g clip-path="url(#id1)"><path fill="#c7d2fe" d="M 27.859375 1.179688 L 87.46875 1.179688 C 92.03125 1.179688 96.40625 2.988281 99.632812 6.210938 C 102.859375 9.433594 104.671875 13.804688 104.671875 18.363281 L 104.671875 78.757812 C 104.671875 83.316406 102.859375 87.6875 99.632812 90.910156 C 96.40625 94.132812 92.03125 95.941406 87.46875 95.941406 L 27.859375 95.941406 C 23.300781 95.941406 18.925781 94.132812 15.699219 90.910156 C 12.472656 87.6875 10.660156 83.316406 10.660156 78.757812 L 10.660156 18.363281 C 10.660156 13.804688 12.472656 9.433594 15.699219 6.210938 C 18.925781 2.988281 23.300781 1.179688 27.859375 1.179688 " fill-opacity="1" fill-rule="nonzero"/></g><g fill="#6563f1" fill-opacity="1"><g transform="translate(33.206218, 72.695523)"><g><path d="M 47.90625 0 L 32.15625 0 L 30.75 -8.3125 L 30.671875 -8.546875 L 23.0625 -8.703125 L 16.703125 -8.390625 L 15.375 0 L 0.15625 0 L 15.375 -50.25 L 34.171875 -50.25 Z M 28.34375 -19.875 L 24.921875 -36.34375 L 24 -36.34375 L 19.640625 -19.875 L 24 -19.796875 Z M 28.34375 -19.875 "/></g></g></g><g fill="#6563f1" fill-opacity="1"><g transform="translate(122.613443, 72.695523)"><g><path d="M 24 -14.28125 L 24.3125 0 L 16.3125 0 L 16.703125 -14.28125 L 16.625 -17.3125 L 0.859375 -49.859375 L 9.390625 -49.859375 L 10.40625 -46.75 L 20.265625 -25.859375 L 20.890625 -25.859375 L 31.84375 -46.59375 L 33.078125 -49.859375 L 41.390625 -49.859375 L 24.078125 -17.703125 Z M 24 -14.28125 "/></g></g></g><g fill="#6563f1" fill-opacity="1"><g transform="translate(164.627656, 72.695523)"><g><path d="M 18.40625 -36.5 C 21.976562 -36.5 24.796875 -35.644531 26.859375 -33.9375 C 28.929688 -32.226562 29.96875 -29.847656 29.96875 -26.796875 C 29.96875 -25.859375 29.816406 -22.75 29.515625 -17.46875 C 29.203125 -12.289062 29.046875 -9.265625 29.046875 -8.390625 C 29.046875 -7.398438 29.210938 -6.710938 29.546875 -6.328125 C 29.878906 -5.941406 30.460938 -5.75 31.296875 -5.75 C 31.816406 -5.75 32.59375 -5.851562 33.625 -6.0625 L 34.328125 -5.515625 L 33.546875 -1.171875 C 32.046875 -0.234375 30.414062 0.335938 28.65625 0.546875 C 27.050781 0.390625 25.753906 -0.191406 24.765625 -1.203125 C 23.785156 -2.210938 23.191406 -3.546875 22.984375 -5.203125 L 22.4375 -5.203125 C 19.800781 -2.410156 17.109375 -0.46875 14.359375 0.625 C 10.796875 0.570312 7.988281 -0.359375 5.9375 -2.171875 C 3.894531 -3.984375 2.875 -6.441406 2.875 -9.546875 C 2.875 -14.160156 5.382812 -17.035156 10.40625 -18.171875 L 22.671875 -20.890625 L 22.75 -25.078125 C 22.75 -26.992188 22.269531 -28.441406 21.3125 -29.421875 C 20.351562 -30.410156 18.96875 -30.90625 17.15625 -30.90625 C 15.394531 -30.90625 13.632812 -30.503906 11.875 -29.703125 C 10.113281 -28.898438 8.175781 -27.644531 6.0625 -25.9375 L 5.4375 -26.328125 L 4.421875 -31.84375 C 8.984375 -34.945312 13.644531 -36.5 18.40625 -36.5 Z M 12.578125 -13.90625 C 11.648438 -13.695312 10.976562 -13.34375 10.5625 -12.84375 C 10.144531 -12.351562 9.9375 -11.59375 9.9375 -10.5625 C 9.9375 -9.007812 10.363281 -7.789062 11.21875 -6.90625 C 12.070312 -6.03125 13.222656 -5.59375 14.671875 -5.59375 C 17.109375 -5.59375 19.695312 -7.171875 22.4375 -10.328125 L 22.671875 -16.3125 Z M 12.578125 -13.90625 "/></g></g></g><g fill="#6563f1" fill-opacity="1"><g transform="translate(201.127988, 72.695523)"><g><path d="M 16.3125 -36.421875 C 19.414062 -36.421875 22.441406 -35.828125 25.390625 -34.640625 L 24.3125 -28.421875 L 23.296875 -28.1875 C 20.609375 -30 17.96875 -30.90625 15.375 -30.90625 C 13.820312 -30.90625 12.59375 -30.488281 11.6875 -29.65625 C 10.78125 -28.832031 10.328125 -27.828125 10.328125 -26.640625 C 10.328125 -25.335938 10.859375 -24.296875 11.921875 -23.515625 C 12.984375 -22.742188 14.625 -21.894531 16.84375 -20.96875 C 18.863281 -20.082031 20.507812 -19.25 21.78125 -18.46875 C 23.050781 -17.695312 24.140625 -16.664062 25.046875 -15.375 C 25.953125 -14.082031 26.40625 -12.476562 26.40625 -10.5625 C 26.40625 -8.59375 25.882812 -6.738281 24.84375 -5 C 23.8125 -3.269531 22.285156 -1.882812 20.265625 -0.84375 C 18.242188 0.1875 15.8125 0.703125 12.96875 0.703125 C 9.394531 0.703125 5.769531 -0.0976562 2.09375 -1.703125 L 3.03125 -8.3125 L 3.890625 -8.859375 C 5.390625 -7.554688 7.046875 -6.53125 8.859375 -5.78125 C 10.671875 -5.03125 12.328125 -4.65625 13.828125 -4.65625 C 15.484375 -4.65625 16.816406 -5.109375 17.828125 -6.015625 C 18.835938 -6.921875 19.34375 -7.992188 19.34375 -9.234375 C 19.34375 -10.535156 18.820312 -11.5625 17.78125 -12.3125 C 16.75 -13.0625 15.117188 -13.953125 12.890625 -14.984375 C 10.867188 -15.867188 9.210938 -16.695312 7.921875 -17.46875 C 6.628906 -18.25 5.53125 -19.3125 4.625 -20.65625 C 3.71875 -22 3.265625 -23.65625 3.265625 -25.625 C 3.265625 -28.78125 4.425781 -31.367188 6.75 -33.390625 C 9.082031 -35.410156 12.269531 -36.421875 16.3125 -36.421875 Z M 16.3125 -36.421875 "/></g></g></g><g fill="#6563f1" fill-opacity="1"><g transform="translate(230.328252, 72.695523)"><g><path d="M 16.3125 -36.421875 C 19.414062 -36.421875 22.441406 -35.828125 25.390625 -34.640625 L 24.3125 -28.421875 L 23.296875 -28.1875 C 20.609375 -30 17.96875 -30.90625 15.375 -30.90625 C 13.820312 -30.90625 12.59375 -30.488281 11.6875 -29.65625 C 10.78125 -28.832031 10.328125 -27.828125 10.328125 -26.640625 C 10.328125 -25.335938 10.859375 -24.296875 11.921875 -23.515625 C 12.984375 -22.742188 14.625 -21.894531 16.84375 -20.96875 C 18.863281 -20.082031 20.507812 -19.25 21.78125 -18.46875 C 23.050781 -17.695312 24.140625 -16.664062 25.046875 -15.375 C 25.953125 -14.082031 26.40625 -12.476562 26.40625 -10.5625 C 26.40625 -8.59375 25.882812 -6.738281 24.84375 -5 C 23.8125 -3.269531 22.285156 -1.882812 20.265625 -0.84375 C 18.242188 0.1875 15.8125 0.703125 12.96875 0.703125 C 9.394531 0.703125 5.769531 -0.0976562 2.09375 -1.703125 L 3.03125 -8.3125 L 3.890625 -8.859375 C 5.390625 -7.554688 7.046875 -6.53125 8.859375 -5.78125 C 10.671875 -5.03125 12.328125 -4.65625 13.828125 -4.65625 C 15.484375 -4.65625 16.816406 -5.109375 17.828125 -6.015625 C 18.835938 -6.921875 19.34375 -7.992188 19.34375 -9.234375 C 19.34375 -10.535156 18.820312 -11.5625 17.78125 -12.3125 C 16.75 -13.0625 15.117188 -13.953125 12.890625 -14.984375 C 10.867188 -15.867188 9.210938 -16.695312 7.921875 -17.46875 C 6.628906 -18.25 5.53125 -19.3125 4.625 -20.65625 C 3.71875 -22 3.265625 -23.65625 3.265625 -25.625 C 3.265625 -28.78125 4.425781 -31.367188 6.75 -33.390625 C 9.082031 -35.410156 12.269531 -36.421875 16.3125 -36.421875 Z M 16.3125 -36.421875 "/></g></g></g><g fill="#6563f1" fill-opacity="1"><g transform="translate(259.528516, 72.695523)"><g><path d="M 6.0625 -14.984375 L 5.828125 -35.25 L 13.59375 -35.953125 L 13.28125 -15.6875 L 13.515625 0 L 5.75 0 Z M 9.796875 -52.5 C 11.085938 -52.5 12.09375 -52.125 12.8125 -51.375 C 13.539062 -50.625 13.90625 -49.570312 13.90625 -48.21875 C 13.90625 -46.820312 13.515625 -45.707031 12.734375 -44.875 C 11.960938 -44.050781 10.90625 -43.640625 9.5625 -43.640625 C 8.21875 -43.640625 7.164062 -44.023438 6.40625 -44.796875 C 5.65625 -45.578125 5.28125 -46.640625 5.28125 -47.984375 C 5.28125 -49.335938 5.679688 -50.425781 6.484375 -51.25 C 7.285156 -52.082031 8.390625 -52.5 9.796875 -52.5 Z M 9.796875 -52.5 "/></g></g></g><g fill="#6563f1" fill-opacity="1"><g transform="translate(278.943588, 72.695523)"><g><path d="M 27.953125 -23.53125 C 28.003906 -25.5 27.550781 -27.035156 26.59375 -28.140625 C 25.632812 -29.253906 24.25 -29.8125 22.4375 -29.8125 C 19.4375 -29.8125 16.332031 -28.257812 13.125 -25.15625 L 13.046875 -15.6875 L 13.515625 0 L 5.59375 0 L 6.0625 -14.984375 L 5.671875 -35.25 L 13.203125 -35.953125 L 13.125 -30.75 L 13.671875 -30.75 C 16.722656 -33.445312 19.90625 -35.285156 23.21875 -36.265625 C 27.207031 -36.265625 30.222656 -35.359375 32.265625 -33.546875 C 34.304688 -31.734375 35.300781 -29.144531 35.25 -25.78125 L 35.015625 -15.6875 L 35.40625 0 L 27.40625 0 Z M 27.953125 -23.53125 "/></g></g></g><g fill="#6563f1" fill-opacity="1"><g transform="translate(319.404596, 72.695523)"><g><path d="M 31.921875 -17.546875 L 10.09375 -17.46875 C 10.144531 -13.539062 11.101562 -10.550781 12.96875 -8.5 C 14.832031 -6.457031 17.472656 -5.4375 20.890625 -5.4375 C 24.460938 -5.4375 27.957031 -6.5 31.375 -8.625 L 32.15625 -8.15625 L 30.984375 -1.78125 C 27.203125 -0.125 23.523438 0.703125 19.953125 0.703125 C 14.617188 0.703125 10.4375 -0.9375 7.40625 -4.21875 C 4.382812 -7.507812 2.875 -12.003906 2.875 -17.703125 C 2.875 -23.453125 4.375 -28.007812 7.375 -31.375 C 10.375 -34.738281 14.4375 -36.421875 19.5625 -36.421875 C 23.914062 -36.421875 27.269531 -35.226562 29.625 -32.84375 C 31.976562 -30.46875 33.15625 -27.101562 33.15625 -22.75 C 33.15625 -21.5625 33.023438 -20.140625 32.765625 -18.484375 Z M 26.015625 -23.6875 C 26.015625 -26.113281 25.457031 -27.945312 24.34375 -29.1875 C 23.226562 -30.4375 21.609375 -31.0625 19.484375 -31.0625 C 17.109375 -31.0625 15.144531 -30.296875 13.59375 -28.765625 C 12.039062 -27.242188 11.003906 -25.082031 10.484375 -22.28125 L 25.859375 -22.59375 Z M 26.015625 -23.6875 "/></g></g></g></svg>